HIERARCHY
ROOT Hips
{
	OFFSET 0.00 0.00 0.00
	CHANNELS 6 Xposition Yposition Zposition Yrotation Xrotation Zrotation
	JOINT Spine
	{
		OFFSET	0.0000	9.2263	1.5771
		CHANNELS 3 Xrotation Yrotation Zrotation
		JOINT Spine1
		{
			OFFSET	0.0000	16.2540	-0.1656
			CHANNELS 3 Xrotation Yrotation Zrotation
			JOINT Spine2
			{
				OFFSET	0.0000	13.6396	-1.2923
				CHANNELS 3 Xrotation Yrotation Zrotation
				JOINT Neck
				{
					OFFSET	0.0000	13.8774	-4.3542
					CHANNELS 3 Xrotation Yrotation Zrotation
					JOINT Neck1
					{
						OFFSET	0.0000	4.3400	0.9269
						CHANNELS 3 Xrotation Yrotation Zrotation
						JOINT Head
						{
							OFFSET	0.0000	4.0266	0.8585
							CHANNELS 3 Xrotation Yrotation Zrotation
							End Site
							{
								OFFSET 0.0000 23.0297 0.1231
							}
						}
					}
				}
				JOINT LeftShoulder
				{
					OFFSET	6.1442	10.1870	-3.7932
					CHANNELS 3 Zrotation Xrotation Yrotation
					JOINT LeftArm
					{
						OFFSET	12.3191	-1.1130	-1.7935
						CHANNELS 3 Zrotation Xrotation Yrotation
						JOINT LeftForeArm
						{
							OFFSET	27.6870	0.0000	0.0000
							CHANNELS 3 Xrotation Zrotation Yrotation
							JOINT LeftHand
							{
								OFFSET	27.8738	0.0000	0.0000
								CHANNELS 3 Zrotation Yrotation Xrotation
								JOINT LeftHandThumb1
								{
									OFFSET	2.3785	-1.0029	2.6209
									CHANNELS 3 Zrotation Xrotation Yrotation
									JOINT LeftHandThumb2
									{
										OFFSET	3.3624	-1.0029	2.8398
										CHANNELS 3 Zrotation Xrotation Yrotation
										JOINT LeftHandThumb3
										{
											OFFSET	4.5018	-1.3445	2.1783
											CHANNELS 3 Zrotation Xrotation Yrotation
											End Site
											{
												OFFSET 2.6000 -1.0000 1.0000
											}
										}
									}
								}
								JOINT LeftHandMiddle1
								{
									OFFSET	10.4639	0.6148	0.4298
									CHANNELS 3 Zrotation Xrotation Yrotation
									JOINT LeftHandMiddle2
									{
										OFFSET	5.7921	0.0000	0.0000
										CHANNELS 3 Zrotation Xrotation Yrotation
										JOINT LeftHandMiddle3
										{
											OFFSET	3.7132	0.0000	0.0000
											CHANNELS 3 Zrotation Xrotation Yrotation
											End Site
											{
												OFFSET 2.3000 0.0000 0.0000
											}
										}
									}
								}
								JOINT LeftHandIndex1
								{
									OFFSET	10.3945	0.6148	2.7055
									CHANNELS 3 Zrotation Xrotation Yrotation
									JOINT LeftHandIndex2
									{
										OFFSET	5.5493	0.0000	0.0000
										CHANNELS 3 Zrotation Xrotation Yrotation
										JOINT LeftHandIndex3
										{
											OFFSET	3.3911	0.0000	0.0000
											CHANNELS 3 Zrotation Xrotation Yrotation
											End Site
											{
												OFFSET 2.5000 0.0000 0.0000
											}
										}
									}
								}
								JOINT LeftHandRing1
								{
									OFFSET	10.3252	0.3211	-1.8755
									CHANNELS 3 Zrotation Xrotation Yrotation
									JOINT LeftHandRing2
									{
										OFFSET	5.4452	0.0000	0.0000
										CHANNELS 3 Zrotation Xrotation Yrotation
										JOINT LeftHandRing3
										{
											OFFSET	3.7132	0.0000	0.0000
											CHANNELS 3 Zrotation Xrotation Yrotation
											End Site
											{
												OFFSET 2.0000 0.0000 0.0000
											}
										}
									}
								}
								JOINT LeftHandPinky1
								{
									OFFSET	10.0130	-0.0783	-3.9671
									CHANNELS 3 Zrotation Xrotation Yrotation
									JOINT LeftHandPinky2
									{
										OFFSET	3.6763	0.0000	0.0000
										CHANNELS 3 Zrotation Xrotation Yrotation
										JOINT LeftHandPinky3
										{
											OFFSET	2.8113	0.0000	0.0000
											CHANNELS 3 Zrotation Xrotation Yrotation
											End Site
											{
												OFFSET 2.9000 0.0000 0.0000
											}
										}
									}
								}
							}
						}
					}
				}
				JOINT RightShoulder
				{
					OFFSET	-6.1402	10.1870	-3.7932
					CHANNELS 3 Zrotation Xrotation Yrotation
					JOINT RightArm
					{
						OFFSET	-12.3231	-1.1130	-1.7935
						CHANNELS 3 Zrotation Xrotation Yrotation
						JOINT RightForeArm
						{
							OFFSET	-27.6870	0.0000	0.0000
							CHANNELS 3 Xrotation Zrotation Yrotation
							JOINT RightHand
							{
								OFFSET	-27.8738	0.0000	0.0000
								CHANNELS 3 Zrotation Yrotation Xrotation
								JOINT RightHandThumb1
								{
									OFFSET	-2.5178	-0.9367	2.5137
									CHANNELS 3 Zrotation Xrotation Yrotation
									JOINT RightHandThumb2
									{
										OFFSET	-3.2638	-1.0870	2.9669
										CHANNELS 3 Zrotation Xrotation Yrotation
										JOINT RightHandThumb3
										{
											OFFSET	-4.4165	-1.3703	2.1350
											CHANNELS 3 Zrotation Xrotation Yrotation
											End Site
											{
												OFFSET -2.6000 -1.0000 1.0000
											}
										}
									}
								}
								JOINT RightHandIndex1
								{
									OFFSET	-10.4665	0.4896	2.7120
									CHANNELS 3 Zrotation Xrotation Yrotation
									JOINT RightHandIndex2
									{
										OFFSET	-5.3768	0.0000	0.0000
										CHANNELS 3 Zrotation Xrotation Yrotation
										JOINT RightHandIndex3
										{
											OFFSET	-3.3855	0.0000	0.0000
											CHANNELS 3 Zrotation Xrotation Yrotation
											End Site
											{
												OFFSET -2.6000 0.0000 0.0000
											}
										}
									}
								}
								JOINT RightHandMiddle1
								{
									OFFSET	-10.7596	0.4896	0.4278
									CHANNELS 3 Zrotation Xrotation Yrotation
									JOINT RightHandMiddle2
									{
										OFFSET	-5.6168	0.0000	0.0000
										CHANNELS 3 Zrotation Xrotation Yrotation
										JOINT RightHandMiddle3
										{
											OFFSET	-3.7364	0.0000	0.0000
											CHANNELS 3 Zrotation Xrotation Yrotation
											End Site
											{
												OFFSET -2.3000 0.0000 0.0000
											}
										}
									}
								}
								JOINT RightHandRing1
								{
									OFFSET	-10.4702	0.3879	-1.9363
									CHANNELS 3 Zrotation Xrotation Yrotation
									JOINT RightHandRing2
									{
										OFFSET	-5.4013	0.0000	0.0000
										CHANNELS 3 Zrotation Xrotation Yrotation
										JOINT RightHandRing3
										{
											OFFSET	-3.3916	0.0000	0.0000
											CHANNELS 3 Zrotation Xrotation Yrotation
											End Site
											{
												OFFSET -2.2000 0.0000 0.0000
											}
										}
									}
								}
								JOINT RightHandPinky1
								{
									OFFSET	-9.9715	-0.1191	-3.9540
									CHANNELS 3 Zrotation Xrotation Yrotation
									JOINT RightHandPinky2
									{
										OFFSET	-3.6528	0.0000	0.0000
										CHANNELS 3 Zrotation Xrotation Yrotation
										JOINT RightHandPinky3
										{
											OFFSET	-2.7820	0.0000	0.0000
											CHANNELS 3 Zrotation Xrotation Yrotation
											End Site
											{
												OFFSET -2.9000 0.0000 0.0000
											}
										}
									}
								}
							}
						}
					}
				}
			}
		}
	}
	JOINT LeftUpLeg
	{
		OFFSET	9.6338	-3.2733	0.0000
		CHANNELS 3 Xrotation Yrotation Zrotation
		JOINT LeftLeg
		{
			OFFSET	0.0000	-41.7300	-1.7300
			CHANNELS 3 Xrotation Yrotation Zrotation
			JOINT LeftFoot
			{
				OFFSET	0.0126	-39.1900	-0.8477
				CHANNELS 3 Xrotation Yrotation Zrotation
				JOINT LeftToeBase
				{
					OFFSET	-0.1833	-12.1931	8.2823
					CHANNELS 3 Xrotation Yrotation Zrotation
					End Site
					{
						OFFSET 0.0000 0.0000 10.1681
					}
				}
			}
		}
	}
	JOINT RightUpLeg
	{
		OFFSET	-9.6338	-3.2733	0.0000
		CHANNELS 3 Xrotation Yrotation Zrotation
		JOINT RightLeg
		{
			OFFSET	0.0000	-41.7300	-1.7300
			CHANNELS 3 Xrotation Yrotation Zrotation
			JOINT RightFoot
			{
				OFFSET	0.0126	-39.1900	-0.8477
				CHANNELS 3 Xrotation Yrotation Zrotation
				JOINT RightToeBase
				{
					OFFSET	-0.1833	-12.1931	8.2823
					CHANNELS 3 Xrotation Yrotation Zrotation
					End Site
					{
						OFFSET 0.0032 0.0000 10.1681
					}
				}
			}
		}
	}
}
MOTION
Frames: 5
Frame Time: 0.0333333
4.3030 94.1921 1.2756 3.3241 -0.7130 0.5603 4.8932 -4.6243 -1.1126 2.0633 -3.4300 0.7104 2.0467 -3.3864 0.8220 0.6685 2.8496 -1.2382 -0.0000 0.0000 -0.0000 -1.5482 7.2856 -1.8676 -14.8968 2.6441 -8.6025 -50.0468 18.4997 -14.1826 0.0000 -0.0000 -29.5727 -13.7809 8.1876 9.9925 4.6417 10.6993 10.5571 4.0457 -1.9806 -0.9243 25.0824 -0.7789 -8.5223 -26.1829 0.0021 -0.6520 -11.9422 0.0003 -0.0031 -13.9421 0.0004 -0.0036 -17.3436 0.2583 -6.8901 -15.1107 0.0005 -0.0039 -15.1107 0.0005 -0.0039 -28.2912 0.0023 1.7519 -19.4622 0.0009 -0.0050 -21.4594 0.0010 -0.0055 -31.9982 -0.0625 0.7345 -17.7482 0.0007 -0.0046 -17.7482 0.0007 -0.0046 14.6575 1.8625 5.1276 56.7368 20.4874 1.9991 -0.0000 -0.0000 9.5028 11.4213 7.2296 12.9301 1.8852 18.7960 -12.6095 -5.5313 -1.2915 -7.8999 -16.8775 -17.6778 -0.7578 13.4680 0.2695 7.6410 23.8924 0.0007 0.0032 10.5938 0.0001 0.0015 16.3285 0.0004 3.5697 35.2361 0.0015 0.0046 20.4199 0.0005 0.0027 19.2580 0.0005 0.9330 47.6909 0.0026 0.0058 23.3772 0.0006 0.0031 24.5213 -0.0001 -0.6534 28.7110 0.0010 0.0038 15.9821 0.0003 0.0022 -10.0587 6.9577 -2.9698 26.6408 -8.1202 4.0176 -15.1283 -0.2255 1.9589 -6.7613 0.0000 -0.0000 -37.0899 -7.8934 -8.8245 70.5516 -0.0356 0.5522 -9.9076 -0.8684 7.3795 -7.4209 0.0000 -0.0000 
4.0359 94.4345 1.0731 4.0632 -0.3604 0.8149 4.9689 -5.5277 -1.3813 2.1286 -4.4468 1.2673 2.0850 -4.3998 1.4030 0.6516 3.3814 -1.0816 -0.0000 0.0000 -0.0000 -1.3297 8.5755 -2.1451 -14.4965 2.6561 -8.8628 -47.1138 19.9371 -17.1376 -0.0000 0.0000 -36.7051 -12.2385 7.6703 9.2189 4.6417 10.6993 10.5571 4.2254 -2.8814 -1.4031 24.9861 -0.6501 -8.0922 -25.9308 0.0019 -0.8606 -11.9214 0.0003 -0.0031 -13.9212 0.0004 -0.0036 -17.0550 0.2200 -7.1535 -15.1009 0.0005 -0.0039 -15.1009 0.0005 -0.0039 -27.8050 0.0022 1.6932 -19.5144 0.0008 -0.0050 -21.5117 0.0010 -0.0055 -31.6825 -0.0525 0.6111 -17.7542 0.0007 -0.0046 -17.7541 0.0007 -0.0046 14.6495 1.7731 4.7234 58.1917 19.9089 -1.3684 -0.0000 -0.0000 9.7797 14.4805 5.5019 12.5023 1.8852 18.7960 -12.6095 -5.4537 -1.1388 -7.8831 -16.8790 -17.6806 -0.7488 13.8313 0.2748 7.6238 23.9074 0.0007 0.0032 10.6088 0.0001 0.0015 16.4809 0.0004 3.5809 35.2538 0.0015 0.0046 20.4376 0.0005 0.0028 19.4790 0.0005 1.0152 47.6432 0.0026 0.0058 23.3293 0.0006 0.0031 24.6279 -0.0029 -0.4867 28.7024 0.0010 0.0038 15.9714 0.0003 0.0022 -4.1648 7.4869 -3.4476 21.4010 -8.7099 5.1066 -15.9596 -1.1593 0.8228 -6.5784 0.0000 -0.0000 -41.8855 -7.2120 -8.7284 62.7874 -1.1837 0.6633 -12.9587 -1.1081 7.4344 -6.7819 0.0000 -0.0000 
3.7219 94.0868 0.9190 4.8644 0.2620 1.3596 4.8247 -6.3461 -2.2038 2.2862 -5.3692 2.0339 2.1837 -5.3090 2.1938 0.5005 3.9195 -1.3435 -0.0000 0.0000 -0.0000 -1.8181 9.5340 -2.1742 -14.0790 2.6747 -9.1733 -43.7330 20.8791 -19.8324 -0.0000 -0.0000 -43.6939 -8.5425 7.1703 9.2453 4.6417 10.6993 10.5571 4.1473 -3.5704 -1.9553 24.8822 -0.5373 -7.7160 -25.7082 0.0020 -1.0026 -11.8950 0.0003 -0.0031 -13.8947 0.0004 -0.0036 -17.0386 0.2224 -7.1430 -15.0942 0.0005 -0.0039 -15.0942 0.0005 -0.0039 -27.5739 0.0022 1.6323 -19.5565 0.0008 -0.0050 -21.5541 0.0011 -0.0055 -31.3643 -0.0215 0.2213 -17.7303 0.0007 -0.0046 -17.7303 0.0007 -0.0046 14.4427 1.6506 4.2365 59.5630 19.2824 -4.3485 0.0000 -0.0000 10.4364 16.6762 2.8193 12.1080 1.8852 18.7960 -12.6095 -5.3223 -0.8124 -7.5577 -16.8833 -17.6890 -0.7214 14.5043 0.2656 7.6494 23.9017 0.0007 0.0032 10.6031 0.0001 0.0015 16.7441 0.0004 3.5622 35.2776 0.0015 0.0046 20.4615 0.0005 0.0028 19.8296 0.0005 1.1321 47.5906 0.0026 0.0058 23.2766 0.0006 0.0031 24.8350 -0.0070 -0.2048 28.5941 0.0010 0.0038 15.8591 0.0003 0.0022 0.8467 8.5730 -3.6193 17.2194 -7.1864 5.5196 -17.4225 -4.8329 -0.7742 -6.5235 0.0000 -0.0000 -44.5416 -6.0554 -7.9165 50.8819 -2.7675 -0.7280 -11.7801 -0.9919 7.0608 -6.4927 0.0000 -0.0000 
3.3477 93.2710 0.9819 5.9211 1.0129 2.4087 4.2349 -7.2118 -3.7598 2.5660 -6.2060 2.8798 2.3849 -6.1235 3.0734 0.3551 4.4473 -1.8969 -0.0000 0.0000 -0.0000 -2.7739 10.2139 -2.0107 -13.8290 2.7477 -9.6614 -39.8354 21.1933 -22.3925 -0.0000 -0.0000 -49.6673 -3.4403 6.6584 9.3637 4.6417 10.6993 10.5571 4.0567 -4.4355 -2.7846 24.7407 -0.3878 -7.2190 -25.0888 0.0020 -1.1177 -11.8778 0.0003 -0.0031 -13.8775 0.0004 -0.0036 -16.3985 0.2226 -7.1513 -15.0847 0.0005 -0.0039 -15.0847 0.0005 -0.0039 -27.0589 0.0021 1.5742 -19.5858 0.0009 -0.0050 -21.5835 0.0010 -0.0055 -30.9167 0.0004 -0.1694 -17.7084 0.0007 -0.0046 -17.7084 0.0007 -0.0046 14.1468 1.5115 3.6994 60.7565 18.4770 -6.7601 0.0000 0.0000 10.8985 18.4869 0.0188 11.2270 1.8852 18.7961 -12.6095 -5.1538 -0.2640 -7.0191 -16.8872 -17.6966 -0.6965 15.3205 0.2626 7.6557 23.9693 0.0007 0.0032 10.6707 0.0001 0.0015 16.9153 0.0005 3.4857 35.2958 0.0015 0.0046 20.4799 0.0005 0.0028 20.1957 0.0006 1.1943 47.5407 0.0026 0.0058 23.2265 0.0006 0.0031 24.9561 -0.0151 0.0140 28.4036 0.0010 0.0038 15.6653 0.0003 0.0021 5.4048 10.1509 -3.7871 13.8736 -4.7928 5.3977 -19.1841 -10.0217 -2.7029 -6.7887 0.0000 -0.0000 -43.9430 -4.9270 -7.1168 35.5360 -4.1249 -3.2633 -10.2258 -0.8857 7.1698 -6.6942 0.0000 -0.0000 
2.9707 92.0532 1.1048 6.8913 1.8438 3.2727 3.5020 -7.5405 -4.6518 2.7019 -7.0275 3.2981 2.4992 -6.9315 3.5143 0.2098 4.8985 -2.3148 -0.0000 0.0000 -0.0000 -3.5850 10.6248 -1.9056 -13.8275 2.8813 -10.3022 -35.6141 21.2036 -24.5016 -0.0000 0.0000 -54.6488 3.2516 6.3082 8.5068 4.6417 10.6992 10.5571 4.0867 -5.4962 -3.9777 24.5851 -0.2023 -6.6038 -24.1660 0.0017 -1.2031 -11.8733 0.0003 -0.0031 -13.8730 0.0004 -0.0036 -15.1624 0.1939 -7.3561 -15.0526 0.0005 -0.0039 -15.0526 0.0005 -0.0039 -26.1992 0.0019 1.5558 -19.5792 0.0009 -0.0050 -21.5769 0.0010 -0.0055 -30.3843 -0.0015 -0.2625 -17.6694 0.0007 -0.0046 -17.6693 0.0007 -0.0046 13.8491 1.3350 2.9802 61.7276 17.6361 -8.5932 -0.0000 -0.0000 11.0024 20.0477 -2.6307 10.1696 1.8852 18.7960 -12.6094 -5.0181 0.1560 -6.6091 -16.8885 -17.6992 -0.6883 15.9262 0.2624 7.6527 23.9625 0.0007 0.0032 10.6639 0.0001 0.0015 17.0035 0.0004 3.3647 35.3349 0.0015 0.0046 20.5193 0.0005 0.0028 20.4159 0.0006 1.2109 47.5255 0.0026 0.0058 23.2113 0.0006 0.0031 25.0950 -0.0387 0.2251 28.3919 0.0009 0.0038 15.6504 0.0003 0.0021 9.5825 11.3064 -3.8461 11.1643 -2.1984 5.4567 -21.2010 -14.7035 -4.9754 -7.4535 0.0000 -0.0000 -40.3024 -5.2210 -6.8458 19.2204 -3.4954 -4.8421 -8.6202 -0.8174 7.6606 -6.7995 0.0000 -0.0000 
